<?xml version="1.0" encoding="UTF-8" standalone="no"?>
<!DOCTYPE svg PUBLIC "-//W3C//DTD SVG 1.1//EN" "http://www.w3.org/Graphics/SVG/1.1/DTD/svg11.dtd">
<svg width="100%" height="100%" viewBox="0 0 7000 5000" version="1.1" xmlns="http://www.w3.org/2000/svg" xmlns:xlink="http://www.w3.org/1999/xlink" xml:space="preserve" xmlns:serif="http://www.serif.com/" style="fill-rule:evenodd;clip-rule:evenodd;stroke-linejoin:round;stroke-miterlimit:2;">
    <g transform="matrix(1,0,0,1,-33.2404,32.2404)">
        <g transform="matrix(1,0,0,1,-44,0)">
            <g transform="matrix(1.41739,0,0,0.980135,-2327.07,31.7576)">
                <path d="M5846,1657.34C5846,1624.96 5827.82,1598.67 5805.43,1598.67L5426.57,1598.67C5404.18,1598.67 5386,1624.96 5386,1657.34C5386,1689.71 5404.18,1716 5426.57,1716L5805.43,1716C5827.82,1716 5846,1689.71 5846,1657.34Z"/>
            </g>
            <g transform="matrix(1.41739,0,0,0.980135,-2207.83,31.7576)">
                <rect x="5386" y="1598.67" width="460" height="117.331"/>
            </g>
            <g transform="matrix(0.546996,0,0,0.980135,2844.26,875.588)">
                <path d="M5846,1657.34C5846,1624.96 5798.9,1598.67 5740.88,1598.67L5491.12,1598.67C5433.1,1598.67 5386,1624.96 5386,1657.34C5386,1689.71 5433.1,1716 5491.12,1716L5740.88,1716C5798.9,1716 5846,1689.71 5846,1657.34Z"/>
            </g>
            <g transform="matrix(0.443478,0,0,0.980135,3487.67,875.588)">
                <rect x="5386" y="1598.67" width="460" height="117.331"/>
            </g>
            <g transform="matrix(1.57534,2.01957,-0.772825,0.602832,-1391.87,-9422.11)">
                <path d="M5846,1657.34C5846,1624.96 5835.94,1598.67 5823.55,1598.67L5408.45,1598.67C5396.06,1598.67 5386,1624.96 5386,1657.34C5386,1689.71 5396.06,1716 5408.45,1716L5823.55,1716C5835.94,1716 5846,1689.71 5846,1657.34Z"/>
            </g>
        </g>
        <g transform="matrix(1.26784,0,0,1.26784,-912.51,-1370.62)">
            <path d="M4722,2937.5C4722,2608.61 4455.39,2342 4126.5,2342C3797.61,2342 3531,2608.61 3531,2937.5L3621.52,2937.5C3621.52,2658.61 3847.61,2432.52 4126.5,2432.52C4405.4,2432.52 4631.48,2658.61 4631.48,2937.5L4722,2937.5Z"/>
        </g>
        <g transform="matrix(-1.26784,-1.55266e-16,1.55266e-16,-1.26784,9550.99,6364.04)">
            <path d="M4722,2937.5C4722,2608.61 4455.39,2342 4126.5,2342C3797.61,2342 3531,2608.61 3531,2937.5L3621.52,2937.5C3621.52,2658.61 3847.61,2432.52 4126.5,2432.52C4405.4,2432.52 4631.48,2658.61 4631.48,2937.5L4722,2937.5Z"/>
        </g>
        <g transform="matrix(4.92959e-17,0.805064,-0.805064,4.92959e-17,8398.37,-1244.01)">
            <path d="M4722,2937.5C4722,2608.61 4455.39,2342 4126.5,2342C3797.61,2342 3531,2608.61 3531,2937.5L3673.92,2937.5C3673.92,2687.55 3876.55,2484.92 4126.5,2484.92C4376.45,2484.92 4579.08,2687.55 4579.08,2937.5L4722,2937.5Z"/>
        </g>
        <g>
            <g transform="matrix(-0.974074,-0.405341,0.39284,-0.944034,2753.58,5121.48)">
                <path d="M823,1559.23C823,1528.2 798.579,1503 768.5,1503C738.421,1503 714,1528.2 714,1559.23L714,3340.77C714,3371.8 738.421,3397 768.5,3397C798.579,3397 823,3371.8 823,3340.77L823,1559.23Z"/>
            </g>
            <g transform="matrix(0.974074,-0.405341,-0.39284,-0.944034,2481.32,5121.48)">
                <path d="M823,1559.23C823,1528.2 798.579,1503 768.5,1503C738.421,1503 714,1528.2 714,1559.23L714,3340.77C714,3371.8 738.421,3397 768.5,3397C798.579,3397 823,3371.8 823,3340.77L823,1559.23Z"/>
            </g>
        </g>
        <g>
            <g transform="matrix(0.974074,0.405341,-0.39284,0.944034,1158.97,-127.296)">
                <path d="M823,1559.23C823,1528.2 798.579,1503 768.5,1503C738.421,1503 714,1528.2 714,1559.23L714,3340.77C714,3371.8 738.421,3397 768.5,3397C798.579,3397 823,3371.8 823,3340.77L823,1559.23Z"/>
            </g>
            <g transform="matrix(-0.974074,0.405341,0.39284,0.944034,1431.22,-127.296)">
                <path d="M823,1559.23C823,1528.2 798.579,1503 768.5,1503C738.421,1503 714,1528.2 714,1559.23L714,3340.77C714,3371.8 738.421,3397 768.5,3397C798.579,3397 823,3371.8 823,3340.77L823,1559.23Z"/>
            </g>
        </g>
    </g>
    <g transform="matrix(0.991379,0,0,1.0067,43.4569,-16.8902)">
        <rect x="4925" y="2385.91" width="116" height="286.084"/>
    </g>
    <g transform="matrix(0.991379,0,0,1.0067,-1351.54,-16.8902)">
        <rect x="4925" y="2385.91" width="116" height="286.084"/>
    </g>
</svg>
